<mxfile host="www.draw.io" modified="2019-12-06T16:11:15.182Z" agent="Mozilla/5.0 (Windows NT 10.0; Win64; x64; rv:70.0) Gecko/20100101 Firefox/70.0" etag="Ve3qkM4ZHV-HsVDb2nVJ" version="12.3.7" type="github" pages="1">
  <diagram id="5fqncZ3Ex4PDNIBZFKyr" name="Strona-1">
    <mxGraphModel dx="1264" dy="561" grid="1" gridSize="10" guides="1" tooltips="1" connect="1" arrows="1" fold="1" page="1" pageScale="1" pageWidth="827" pageHeight="1169" math="0" shadow="0">
      <root>
        <mxCell id="0"/>
        <mxCell id="1" parent="0"/>
        <mxCell id="UiLYyNHuYQ9YZWrh0_22-1" value="Game" style="swimlane;fontStyle=1;align=center;verticalAlign=top;childLayout=stackLayout;horizontal=1;startSize=26;horizontalStack=0;resizeParent=1;resizeParentMax=0;resizeLast=0;collapsible=1;marginBottom=0;" vertex="1" parent="1">
          <mxGeometry x="100" y="90" width="160" height="86" as="geometry"/>
        </mxCell>
        <mxCell id="UiLYyNHuYQ9YZWrh0_22-2" value="+ field: type" style="text;strokeColor=none;fillColor=none;align=left;verticalAlign=top;spacingLeft=4;spacingRight=4;overflow=hidden;rotatable=0;points=[[0,0.5],[1,0.5]];portConstraint=eastwest;" vertex="1" parent="UiLYyNHuYQ9YZWrh0_22-1">
          <mxGeometry y="26" width="160" height="26" as="geometry"/>
        </mxCell>
        <mxCell id="UiLYyNHuYQ9YZWrh0_22-3" value="" style="line;strokeWidth=1;fillColor=none;align=left;verticalAlign=middle;spacingTop=-1;spacingLeft=3;spacingRight=3;rotatable=0;labelPosition=right;points=[];portConstraint=eastwest;" vertex="1" parent="UiLYyNHuYQ9YZWrh0_22-1">
          <mxGeometry y="52" width="160" height="8" as="geometry"/>
        </mxCell>
        <mxCell id="UiLYyNHuYQ9YZWrh0_22-4" value="+ method(type): type" style="text;strokeColor=none;fillColor=none;align=left;verticalAlign=top;spacingLeft=4;spacingRight=4;overflow=hidden;rotatable=0;points=[[0,0.5],[1,0.5]];portConstraint=eastwest;" vertex="1" parent="UiLYyNHuYQ9YZWrh0_22-1">
          <mxGeometry y="60" width="160" height="26" as="geometry"/>
        </mxCell>
        <mxCell id="UiLYyNHuYQ9YZWrh0_22-5" value="Enemy" style="swimlane;fontStyle=1;align=center;verticalAlign=top;childLayout=stackLayout;horizontal=1;startSize=26;horizontalStack=0;resizeParent=1;resizeParentMax=0;resizeLast=0;collapsible=1;marginBottom=0;" vertex="1" parent="1">
          <mxGeometry x="500" y="40" width="160" height="164" as="geometry"/>
        </mxCell>
        <mxCell id="UiLYyNHuYQ9YZWrh0_22-6" value="# frequency: int" style="text;strokeColor=none;fillColor=none;align=left;verticalAlign=top;spacingLeft=4;spacingRight=4;overflow=hidden;rotatable=0;points=[[0,0.5],[1,0.5]];portConstraint=eastwest;" vertex="1" parent="UiLYyNHuYQ9YZWrh0_22-5">
          <mxGeometry y="26" width="160" height="26" as="geometry"/>
        </mxCell>
        <mxCell id="UiLYyNHuYQ9YZWrh0_22-30" value="- image: Image" style="text;strokeColor=none;fillColor=none;align=left;verticalAlign=top;spacingLeft=4;spacingRight=4;overflow=hidden;rotatable=0;points=[[0,0.5],[1,0.5]];portConstraint=eastwest;" vertex="1" parent="UiLYyNHuYQ9YZWrh0_22-5">
          <mxGeometry y="52" width="160" height="26" as="geometry"/>
        </mxCell>
        <mxCell id="UiLYyNHuYQ9YZWrh0_22-7" value="" style="line;strokeWidth=1;fillColor=none;align=left;verticalAlign=middle;spacingTop=-1;spacingLeft=3;spacingRight=3;rotatable=0;labelPosition=right;points=[];portConstraint=eastwest;" vertex="1" parent="UiLYyNHuYQ9YZWrh0_22-5">
          <mxGeometry y="78" width="160" height="8" as="geometry"/>
        </mxCell>
        <mxCell id="UiLYyNHuYQ9YZWrh0_22-8" value="+ move(): void" style="text;strokeColor=none;fillColor=none;align=left;verticalAlign=top;spacingLeft=4;spacingRight=4;overflow=hidden;rotatable=0;points=[[0,0.5],[1,0.5]];portConstraint=eastwest;" vertex="1" parent="UiLYyNHuYQ9YZWrh0_22-5">
          <mxGeometry y="86" width="160" height="26" as="geometry"/>
        </mxCell>
        <mxCell id="UiLYyNHuYQ9YZWrh0_22-32" value="+ shoot(): Bullet" style="text;strokeColor=none;fillColor=none;align=left;verticalAlign=top;spacingLeft=4;spacingRight=4;overflow=hidden;rotatable=0;points=[[0,0.5],[1,0.5]];portConstraint=eastwest;" vertex="1" parent="UiLYyNHuYQ9YZWrh0_22-5">
          <mxGeometry y="112" width="160" height="26" as="geometry"/>
        </mxCell>
        <mxCell id="UiLYyNHuYQ9YZWrh0_22-31" value="+ spawn(): Enemy" style="text;strokeColor=none;fillColor=none;align=left;verticalAlign=top;spacingLeft=4;spacingRight=4;overflow=hidden;rotatable=0;points=[[0,0.5],[1,0.5]];portConstraint=eastwest;" vertex="1" parent="UiLYyNHuYQ9YZWrh0_22-5">
          <mxGeometry y="138" width="160" height="26" as="geometry"/>
        </mxCell>
        <mxCell id="UiLYyNHuYQ9YZWrh0_22-9" value="MediumEnemy" style="swimlane;fontStyle=1;align=center;verticalAlign=top;childLayout=stackLayout;horizontal=1;startSize=26;horizontalStack=0;resizeParent=1;resizeParentMax=0;resizeLast=0;collapsible=1;marginBottom=0;" vertex="1" parent="1">
          <mxGeometry x="500" y="300" width="160" height="86" as="geometry"/>
        </mxCell>
        <mxCell id="UiLYyNHuYQ9YZWrh0_22-10" value="+ field: type" style="text;strokeColor=none;fillColor=none;align=left;verticalAlign=top;spacingLeft=4;spacingRight=4;overflow=hidden;rotatable=0;points=[[0,0.5],[1,0.5]];portConstraint=eastwest;" vertex="1" parent="UiLYyNHuYQ9YZWrh0_22-9">
          <mxGeometry y="26" width="160" height="26" as="geometry"/>
        </mxCell>
        <mxCell id="UiLYyNHuYQ9YZWrh0_22-11" value="" style="line;strokeWidth=1;fillColor=none;align=left;verticalAlign=middle;spacingTop=-1;spacingLeft=3;spacingRight=3;rotatable=0;labelPosition=right;points=[];portConstraint=eastwest;" vertex="1" parent="UiLYyNHuYQ9YZWrh0_22-9">
          <mxGeometry y="52" width="160" height="8" as="geometry"/>
        </mxCell>
        <mxCell id="UiLYyNHuYQ9YZWrh0_22-12" value="+ method(type): type" style="text;strokeColor=none;fillColor=none;align=left;verticalAlign=top;spacingLeft=4;spacingRight=4;overflow=hidden;rotatable=0;points=[[0,0.5],[1,0.5]];portConstraint=eastwest;" vertex="1" parent="UiLYyNHuYQ9YZWrh0_22-9">
          <mxGeometry y="60" width="160" height="26" as="geometry"/>
        </mxCell>
        <mxCell id="UiLYyNHuYQ9YZWrh0_22-13" value="WeakEnemy" style="swimlane;fontStyle=1;align=center;verticalAlign=top;childLayout=stackLayout;horizontal=1;startSize=26;horizontalStack=0;resizeParent=1;resizeParentMax=0;resizeLast=0;collapsible=1;marginBottom=0;" vertex="1" parent="1">
          <mxGeometry x="300" y="296" width="160" height="86" as="geometry">
            <mxRectangle x="300" y="296" width="100" height="26" as="alternateBounds"/>
          </mxGeometry>
        </mxCell>
        <mxCell id="UiLYyNHuYQ9YZWrh0_22-14" value="+ field: type" style="text;strokeColor=none;fillColor=none;align=left;verticalAlign=top;spacingLeft=4;spacingRight=4;overflow=hidden;rotatable=0;points=[[0,0.5],[1,0.5]];portConstraint=eastwest;" vertex="1" parent="UiLYyNHuYQ9YZWrh0_22-13">
          <mxGeometry y="26" width="160" height="26" as="geometry"/>
        </mxCell>
        <mxCell id="UiLYyNHuYQ9YZWrh0_22-15" value="" style="line;strokeWidth=1;fillColor=none;align=left;verticalAlign=middle;spacingTop=-1;spacingLeft=3;spacingRight=3;rotatable=0;labelPosition=right;points=[];portConstraint=eastwest;" vertex="1" parent="UiLYyNHuYQ9YZWrh0_22-13">
          <mxGeometry y="52" width="160" height="8" as="geometry"/>
        </mxCell>
        <mxCell id="UiLYyNHuYQ9YZWrh0_22-16" value="+ method(type): type" style="text;strokeColor=none;fillColor=none;align=left;verticalAlign=top;spacingLeft=4;spacingRight=4;overflow=hidden;rotatable=0;points=[[0,0.5],[1,0.5]];portConstraint=eastwest;" vertex="1" parent="UiLYyNHuYQ9YZWrh0_22-13">
          <mxGeometry y="60" width="160" height="26" as="geometry"/>
        </mxCell>
        <mxCell id="UiLYyNHuYQ9YZWrh0_22-17" value="StrongEnemy" style="swimlane;fontStyle=1;align=center;verticalAlign=top;childLayout=stackLayout;horizontal=1;startSize=26;horizontalStack=0;resizeParent=1;resizeParentMax=0;resizeLast=0;collapsible=1;marginBottom=0;" vertex="1" parent="1">
          <mxGeometry x="700" y="290" width="160" height="86" as="geometry"/>
        </mxCell>
        <mxCell id="UiLYyNHuYQ9YZWrh0_22-18" value="+ field: type" style="text;strokeColor=none;fillColor=none;align=left;verticalAlign=top;spacingLeft=4;spacingRight=4;overflow=hidden;rotatable=0;points=[[0,0.5],[1,0.5]];portConstraint=eastwest;" vertex="1" parent="UiLYyNHuYQ9YZWrh0_22-17">
          <mxGeometry y="26" width="160" height="26" as="geometry"/>
        </mxCell>
        <mxCell id="UiLYyNHuYQ9YZWrh0_22-19" value="" style="line;strokeWidth=1;fillColor=none;align=left;verticalAlign=middle;spacingTop=-1;spacingLeft=3;spacingRight=3;rotatable=0;labelPosition=right;points=[];portConstraint=eastwest;" vertex="1" parent="UiLYyNHuYQ9YZWrh0_22-17">
          <mxGeometry y="52" width="160" height="8" as="geometry"/>
        </mxCell>
        <mxCell id="UiLYyNHuYQ9YZWrh0_22-20" value="+ method(type): type" style="text;strokeColor=none;fillColor=none;align=left;verticalAlign=top;spacingLeft=4;spacingRight=4;overflow=hidden;rotatable=0;points=[[0,0.5],[1,0.5]];portConstraint=eastwest;" vertex="1" parent="UiLYyNHuYQ9YZWrh0_22-17">
          <mxGeometry y="60" width="160" height="26" as="geometry"/>
        </mxCell>
        <mxCell id="UiLYyNHuYQ9YZWrh0_22-21" value="Extends" style="endArrow=block;endSize=16;endFill=0;html=1;entryX=-0.019;entryY=1.115;entryDx=0;entryDy=0;entryPerimeter=0;exitX=0.544;exitY=-0.012;exitDx=0;exitDy=0;exitPerimeter=0;" edge="1" parent="1" source="UiLYyNHuYQ9YZWrh0_22-13" target="UiLYyNHuYQ9YZWrh0_22-31">
          <mxGeometry width="160" relative="1" as="geometry">
            <mxPoint x="150" y="410" as="sourcePoint"/>
            <mxPoint x="310" y="410" as="targetPoint"/>
          </mxGeometry>
        </mxCell>
        <mxCell id="UiLYyNHuYQ9YZWrh0_22-26" value="Extends" style="endArrow=block;endSize=16;endFill=0;html=1;exitX=0.5;exitY=0;exitDx=0;exitDy=0;entryX=0.481;entryY=1.038;entryDx=0;entryDy=0;entryPerimeter=0;" edge="1" parent="1" source="UiLYyNHuYQ9YZWrh0_22-9" target="UiLYyNHuYQ9YZWrh0_22-31">
          <mxGeometry width="160" relative="1" as="geometry">
            <mxPoint x="397.03999999999996" y="304.96799999999996" as="sourcePoint"/>
            <mxPoint x="580" y="200" as="targetPoint"/>
          </mxGeometry>
        </mxCell>
        <mxCell id="UiLYyNHuYQ9YZWrh0_22-27" value="Extends" style="endArrow=block;endSize=16;endFill=0;html=1;exitX=0.5;exitY=0;exitDx=0;exitDy=0;entryX=1.013;entryY=1.038;entryDx=0;entryDy=0;entryPerimeter=0;" edge="1" parent="1" source="UiLYyNHuYQ9YZWrh0_22-17" target="UiLYyNHuYQ9YZWrh0_22-31">
          <mxGeometry width="160" relative="1" as="geometry">
            <mxPoint x="407.03999999999996" y="314.96799999999996" as="sourcePoint"/>
            <mxPoint x="580" y="200" as="targetPoint"/>
          </mxGeometry>
        </mxCell>
        <mxCell id="UiLYyNHuYQ9YZWrh0_22-28" value="1" style="endArrow=open;html=1;endSize=12;startArrow=diamondThin;startSize=14;startFill=0;edgeStyle=orthogonalEdgeStyle;align=left;verticalAlign=bottom;entryX=0;entryY=0.5;entryDx=0;entryDy=0;exitX=1;exitY=0.5;exitDx=0;exitDy=0;" edge="1" parent="1" source="UiLYyNHuYQ9YZWrh0_22-1" target="UiLYyNHuYQ9YZWrh0_22-6">
          <mxGeometry x="-1" y="3" relative="1" as="geometry">
            <mxPoint x="310" y="149" as="sourcePoint"/>
            <mxPoint x="310" y="410" as="targetPoint"/>
          </mxGeometry>
        </mxCell>
        <mxCell id="UiLYyNHuYQ9YZWrh0_22-33" value="budowniczy" style="text;strokeColor=none;fillColor=none;align=left;verticalAlign=top;spacingLeft=4;spacingRight=4;overflow=hidden;rotatable=0;points=[[0,0.5],[1,0.5]];portConstraint=eastwest;" vertex="1" parent="1">
          <mxGeometry x="160" y="14" width="100" height="26" as="geometry"/>
        </mxCell>
        <mxCell id="UiLYyNHuYQ9YZWrh0_22-34" value="Ship" style="swimlane;fontStyle=1;align=center;verticalAlign=top;childLayout=stackLayout;horizontal=1;startSize=26;horizontalStack=0;resizeParent=1;resizeParentMax=0;resizeLast=0;collapsible=1;marginBottom=0;" vertex="1" parent="1">
          <mxGeometry x="180" y="580" width="160" height="216" as="geometry"/>
        </mxCell>
        <mxCell id="UiLYyNHuYQ9YZWrh0_22-35" value="# HP: int" style="text;strokeColor=none;fillColor=none;align=left;verticalAlign=top;spacingLeft=4;spacingRight=4;overflow=hidden;rotatable=0;points=[[0,0.5],[1,0.5]];portConstraint=eastwest;" vertex="1" parent="UiLYyNHuYQ9YZWrh0_22-34">
          <mxGeometry y="26" width="160" height="26" as="geometry"/>
        </mxCell>
        <mxCell id="UiLYyNHuYQ9YZWrh0_22-43" value="- bullet: Bullet" style="text;strokeColor=none;fillColor=none;align=left;verticalAlign=top;spacingLeft=4;spacingRight=4;overflow=hidden;rotatable=0;points=[[0,0.5],[1,0.5]];portConstraint=eastwest;" vertex="1" parent="UiLYyNHuYQ9YZWrh0_22-34">
          <mxGeometry y="52" width="160" height="26" as="geometry"/>
        </mxCell>
        <mxCell id="UiLYyNHuYQ9YZWrh0_22-44" value="- image: Image" style="text;strokeColor=none;fillColor=none;align=left;verticalAlign=top;spacingLeft=4;spacingRight=4;overflow=hidden;rotatable=0;points=[[0,0.5],[1,0.5]];portConstraint=eastwest;" vertex="1" parent="UiLYyNHuYQ9YZWrh0_22-34">
          <mxGeometry y="78" width="160" height="26" as="geometry"/>
        </mxCell>
        <mxCell id="UiLYyNHuYQ9YZWrh0_22-36" value="" style="line;strokeWidth=1;fillColor=none;align=left;verticalAlign=middle;spacingTop=-1;spacingLeft=3;spacingRight=3;rotatable=0;labelPosition=right;points=[];portConstraint=eastwest;" vertex="1" parent="UiLYyNHuYQ9YZWrh0_22-34">
          <mxGeometry y="104" width="160" height="8" as="geometry"/>
        </mxCell>
        <mxCell id="UiLYyNHuYQ9YZWrh0_22-37" value="+ move(): void" style="text;strokeColor=none;fillColor=none;align=left;verticalAlign=top;spacingLeft=4;spacingRight=4;overflow=hidden;rotatable=0;points=[[0,0.5],[1,0.5]];portConstraint=eastwest;" vertex="1" parent="UiLYyNHuYQ9YZWrh0_22-34">
          <mxGeometry y="112" width="160" height="26" as="geometry"/>
        </mxCell>
        <mxCell id="UiLYyNHuYQ9YZWrh0_22-45" value="+ shoot(): Bullet" style="text;strokeColor=none;fillColor=none;align=left;verticalAlign=top;spacingLeft=4;spacingRight=4;overflow=hidden;rotatable=0;points=[[0,0.5],[1,0.5]];portConstraint=eastwest;" vertex="1" parent="UiLYyNHuYQ9YZWrh0_22-34">
          <mxGeometry y="138" width="160" height="26" as="geometry"/>
        </mxCell>
        <mxCell id="UiLYyNHuYQ9YZWrh0_22-46" value="+ spawn(): Ship" style="text;strokeColor=none;fillColor=none;align=left;verticalAlign=top;spacingLeft=4;spacingRight=4;overflow=hidden;rotatable=0;points=[[0,0.5],[1,0.5]];portConstraint=eastwest;" vertex="1" parent="UiLYyNHuYQ9YZWrh0_22-34">
          <mxGeometry y="164" width="160" height="26" as="geometry"/>
        </mxCell>
        <mxCell id="UiLYyNHuYQ9YZWrh0_22-47" value="+ getInstand: Ship" style="text;strokeColor=none;fillColor=none;align=left;verticalAlign=top;spacingLeft=4;spacingRight=4;overflow=hidden;rotatable=0;points=[[0,0.5],[1,0.5]];portConstraint=eastwest;" vertex="1" parent="UiLYyNHuYQ9YZWrh0_22-34">
          <mxGeometry y="190" width="160" height="26" as="geometry"/>
        </mxCell>
        <mxCell id="UiLYyNHuYQ9YZWrh0_22-38" value="Improvement" style="swimlane;fontStyle=1;align=center;verticalAlign=top;childLayout=stackLayout;horizontal=1;startSize=26;horizontalStack=0;resizeParent=1;resizeParentMax=0;resizeLast=0;collapsible=1;marginBottom=0;" vertex="1" parent="1">
          <mxGeometry x="560" y="650" width="160" height="86" as="geometry"/>
        </mxCell>
        <mxCell id="UiLYyNHuYQ9YZWrh0_22-39" value="+ field: type" style="text;strokeColor=none;fillColor=none;align=left;verticalAlign=top;spacingLeft=4;spacingRight=4;overflow=hidden;rotatable=0;points=[[0,0.5],[1,0.5]];portConstraint=eastwest;" vertex="1" parent="UiLYyNHuYQ9YZWrh0_22-38">
          <mxGeometry y="26" width="160" height="26" as="geometry"/>
        </mxCell>
        <mxCell id="UiLYyNHuYQ9YZWrh0_22-40" value="" style="line;strokeWidth=1;fillColor=none;align=left;verticalAlign=middle;spacingTop=-1;spacingLeft=3;spacingRight=3;rotatable=0;labelPosition=right;points=[];portConstraint=eastwest;" vertex="1" parent="UiLYyNHuYQ9YZWrh0_22-38">
          <mxGeometry y="52" width="160" height="8" as="geometry"/>
        </mxCell>
        <mxCell id="UiLYyNHuYQ9YZWrh0_22-41" value="+ method(type): type" style="text;strokeColor=none;fillColor=none;align=left;verticalAlign=top;spacingLeft=4;spacingRight=4;overflow=hidden;rotatable=0;points=[[0,0.5],[1,0.5]];portConstraint=eastwest;" vertex="1" parent="UiLYyNHuYQ9YZWrh0_22-38">
          <mxGeometry y="60" width="160" height="26" as="geometry"/>
        </mxCell>
        <mxCell id="UiLYyNHuYQ9YZWrh0_22-42" value="dekorator" style="text;strokeColor=none;fillColor=none;align=left;verticalAlign=top;spacingLeft=4;spacingRight=4;overflow=hidden;rotatable=0;points=[[0,0.5],[1,0.5]];portConstraint=eastwest;" vertex="1" parent="1">
          <mxGeometry x="100" y="490" width="100" height="26" as="geometry"/>
        </mxCell>
        <mxCell id="UiLYyNHuYQ9YZWrh0_22-48" value="Classname" style="swimlane;fontStyle=1;align=center;verticalAlign=top;childLayout=stackLayout;horizontal=1;startSize=26;horizontalStack=0;resizeParent=1;resizeParentMax=0;resizeLast=0;collapsible=1;marginBottom=0;" vertex="1" parent="1">
          <mxGeometry x="440" y="822" width="160" height="86" as="geometry"/>
        </mxCell>
        <mxCell id="UiLYyNHuYQ9YZWrh0_22-49" value="+ field: type" style="text;strokeColor=none;fillColor=none;align=left;verticalAlign=top;spacingLeft=4;spacingRight=4;overflow=hidden;rotatable=0;points=[[0,0.5],[1,0.5]];portConstraint=eastwest;" vertex="1" parent="UiLYyNHuYQ9YZWrh0_22-48">
          <mxGeometry y="26" width="160" height="26" as="geometry"/>
        </mxCell>
        <mxCell id="UiLYyNHuYQ9YZWrh0_22-50" value="" style="line;strokeWidth=1;fillColor=none;align=left;verticalAlign=middle;spacingTop=-1;spacingLeft=3;spacingRight=3;rotatable=0;labelPosition=right;points=[];portConstraint=eastwest;" vertex="1" parent="UiLYyNHuYQ9YZWrh0_22-48">
          <mxGeometry y="52" width="160" height="8" as="geometry"/>
        </mxCell>
        <mxCell id="UiLYyNHuYQ9YZWrh0_22-51" value="+ method(type): type" style="text;strokeColor=none;fillColor=none;align=left;verticalAlign=top;spacingLeft=4;spacingRight=4;overflow=hidden;rotatable=0;points=[[0,0.5],[1,0.5]];portConstraint=eastwest;" vertex="1" parent="UiLYyNHuYQ9YZWrh0_22-48">
          <mxGeometry y="60" width="160" height="26" as="geometry"/>
        </mxCell>
      </root>
    </mxGraphModel>
  </diagram>
</mxfile>
